<svg width="240" height="324" viewBox="0 0 240 324" fill="none" xmlns="http://www.w3.org/2000/svg">
<path fill-rule="evenodd" clip-rule="evenodd" d="M188.18 197.386C187.516 195.563 188.485 193.744 189.023 191.98C190.933 185.864 193.019 179.747 195.969 174.043C197.087 172.134 195.248 169.794 193.118 170.332C189.47 170.843 185.709 170.436 182.055 170.21C180.719 166.752 177.152 165.317 174.345 163.325C171.16 161.337 168.062 159.052 164.749 157.309C164.565 155.661 162.568 155.253 161.347 156.431C157.993 154.344 153.971 154.732 150.376 153.364C147.644 148.947 147.439 144.302 146.716 140.041C146.4 138.183 146.735 136.391 145.467 134.735C141.204 128.738 124.363 126.137 118.153 129.691C114.811 127.606 114.73 131.383 114.2 133.714C113.609 134.88 113.29 136.201 113.389 137.592C109.799 145.094 101.585 148.485 94.2289 151.233C93.306 150.344 91.9871 150.457 91.1091 151.192C84.733 152.578 78.5448 155.016 73.2027 158.822C67.1334 160.598 62.859 165.536 59.7681 170.831C59.4276 171.389 59.3473 171.958 59.4468 172.481C49.9421 186.419 45.4058 203.105 44.7686 219.957C38.6564 223.627 47.6737 256.593 49.7729 263.437C49.775 263.436 49.7771 263.435 49.7792 263.434C51.141 265.846 52.6873 272.729 56.0955 272.196C58.4334 274.841 62.1591 274.321 65.3317 274.524C64.8149 276.507 65.0689 278.776 65.6839 280.735C66.4112 283.067 69.9808 283.146 70.487 280.603C102.081 286.744 134.497 281.845 166.446 282.766C175.684 282.832 184.92 283.118 194.136 283.776C195.433 283.869 196.749 282.542 196.66 281.25C194.679 260.163 192.819 232.423 190.603 211.543C190.078 206.781 189.662 201.967 188.18 197.386Z" fill="white"/>
<path fill-rule="evenodd" clip-rule="evenodd" d="M114.72 130.993C114.811 130.745 115.18 130.778 115.187 131.056C115.333 136.985 113.857 144.23 109.115 148.235C106.68 150.291 103.462 151.232 100.506 152.313L100.173 152.436L94.9507 154.382C93.5656 154.898 92.0715 155.692 90.8481 154.963C91.8381 157.419 92.6692 159.942 93.8749 162.309C95.3758 165.256 97.1903 167.951 99.4112 170.403C108.209 180.117 122.134 183.08 134.63 180.234C141.065 178.768 147.326 175.99 151.716 170.924C155.052 167.073 156.969 161.905 157.421 156.807C157.289 156.828 157.15 156.827 157.008 156.796C155.427 156.451 153.831 155.603 152.44 154.772L152.306 154.692C150.967 153.885 149.572 152.962 148.611 151.709C147.657 150.465 146.656 146.408 146.656 146.408C146.383 144.883 146.127 141.845 146.171 140.304C146.175 140.159 146.82 140.073 146.889 140.224C147.485 141.532 147.678 144.408 148.138 145.769L148.23 146.041C148.722 147.464 149.143 149.195 150.161 150.345C152.074 152.504 154.959 153.418 157.534 154.5C157.719 152.06 161.615 152.117 161.565 154.662C161.562 154.8 161.556 154.938 161.551 155.075C161.859 155.244 162.154 155.437 162.43 155.624L162.7 155.807C163.72 156.501 164.748 157.161 165.834 157.749C167.936 158.89 170.163 159.794 172.317 160.828C174.497 161.876 176.535 163.123 178.439 164.617C179.333 165.318 180.19 166.064 181.003 166.858L181.223 167.076C181.997 167.847 183.004 168.709 183.445 169.722C183.542 169.945 184.029 170.465 184.293 170.482C188.387 170.751 192.472 171.13 196.539 171.698C197.593 171.845 198.009 172.388 197.62 173.266C196.282 176.284 191.045 188.336 189.652 191.57C189.815 193.946 189.595 196.743 189.742 199.12C189.956 202.588 190.237 206.055 190.573 209.513C191.778 221.885 193.603 234.197 195.253 246.515C196.078 252.679 196.831 258.853 197.574 265.028C197.949 268.149 198.268 271.272 198.513 274.406C198.615 275.712 198.708 277.019 198.789 278.326L198.86 279.486C198.957 280.945 199.18 282.338 198.277 283.591C197.868 284.159 196.933 284.479 196.395 283.833C195.719 283.022 195.467 282.416 195.403 281.35C195.353 280.534 195.341 279.715 195.304 278.898C195.224 277.128 195.123 275.358 195.005 273.59C194.769 270.055 194.499 266.521 194.187 262.991C193.094 250.616 191.015 238.334 189.632 225.989C188.935 219.766 188.439 213.531 188.177 207.273C188.046 204.148 187.998 201.023 188.029 197.896C188.041 196.727 188.096 195.564 188.176 194.404C186.104 199.113 183.926 203.777 181.648 208.378L181.109 209.468C179.665 212.377 178.183 215.296 176.449 218.038L176.15 218.506C175.448 219.62 174.488 221.376 173.206 221.727C172.314 221.972 171.223 221.8 170.308 221.782C169.399 221.765 168.49 221.761 167.582 221.724C166.564 221.683 165.593 221.549 164.609 221.284C164.445 221.24 164.291 221.192 164.15 221.131C163.159 222.754 161.474 223.99 159.752 224.71C158.373 225.287 156.927 225.682 155.479 226.048L154.968 226.177C153.416 226.563 151.64 226.747 150.764 228.247L150.561 228.595C149.91 229.701 149.286 230.673 148.208 231.466C147.049 232.32 145.675 232.857 144.306 233.275C142.905 233.703 141.471 234.03 140.048 234.381L139.66 234.478C138.721 234.713 137.773 234.929 136.839 235.184C136.441 235.294 136.036 235.406 135.645 235.54C135.187 235.698 134.855 235.943 134.494 236.21C134.169 237.344 132.782 237.96 131.642 237.881C131.043 237.84 130.506 237.637 130.017 237.339C129.163 238.065 128.224 238.716 127.354 239.389C126.136 240.332 124.913 241.268 123.684 242.195C121.149 244.107 118.594 245.993 116.013 247.842C111.432 251.125 106.751 254.257 101.991 257.273C100.006 258.53 98.0079 259.786 95.9901 261.011L96.2055 261.091L96.6326 261.252C97.6422 261.629 98.7672 262.239 98.9629 263.417C99.1179 264.352 98.5961 264.996 97.6737 265.11C96.5774 265.245 95.7244 264.471 95.0417 263.731C94.7405 263.405 94.4033 263.102 94.1147 262.766C93.997 262.629 93.9066 262.471 93.827 262.305C91.8356 263.479 89.8231 264.613 87.7787 265.674L87.2669 265.938C82.1971 268.531 77.2625 271.372 72.1496 273.892C70.8159 274.55 69.1898 275.261 67.4948 275.746C67.9446 277.49 67.9376 279.405 67.949 281.175C67.9598 282.9 65.2194 282.892 65.2773 281.175L65.3052 280.346C65.3551 278.951 65.4366 277.504 65.7672 276.148C60.7732 276.976 55.7842 275.176 54.8553 274.635C53.83 274.038 52.8994 273.084 52.1248 272.199C50.4675 270.303 49.3173 268.032 48.2969 265.747C46.1111 260.853 44.5625 255.621 43.4303 250.389C39.2563 231.1 41.0517 210.455 47.8302 191.965C49.5237 187.345 51.5232 182.827 53.8144 178.473L54.0989 177.934C56.3852 173.628 58.9263 169.338 62.1541 165.674C65.5163 161.857 69.6637 158.889 74.1793 156.585C76.383 155.46 78.6505 154.486 80.9682 153.622C81.3404 153.483 81.7152 153.359 82.0908 153.24C84.506 151.7 87.4372 150.226 90.3694 150.284C90.5686 150.288 90.73 150.363 90.8504 150.477C90.9917 150.502 91.1331 150.532 91.2746 150.573C91.5871 150.664 91.9171 151.007 91.8723 151.359L91.8571 151.476C91.8488 151.533 91.8384 151.588 91.8206 151.642C91.9253 151.658 92.0282 151.683 92.129 151.717C94.9344 150.924 97.6946 149.712 100.432 148.735L101.055 148.514C103.348 147.711 105.701 146.923 107.582 145.332C109.453 143.749 110.86 141.699 111.877 139.483C113.13 136.753 113.691 133.796 114.72 130.993ZM170.888 274.99C171.443 274.577 172.1 275.056 172.308 275.568C172.99 277.247 172.653 279.856 171.691 281.341C170.695 282.879 168.309 282.272 168.251 280.409C168.191 278.466 169.32 276.158 170.888 274.99ZM176.626 228.622C176.675 228.404 177.014 228.406 177.065 228.622C177.527 230.593 177.517 232.715 177.652 234.735L177.668 234.959C177.831 237.187 177.968 239.421 178.066 241.652C178.257 246.043 178.486 250.434 178.743 254.822C178.87 256.997 179.007 259.173 179.152 261.347C179.608 261.093 180.078 260.87 180.565 260.673C181.294 260.378 182.004 260.344 182.788 260.352C183.742 260.362 184.46 261.202 184.334 262.137C184.196 263.155 183.3 263.592 182.369 263.447C181.338 263.285 180.303 263.035 179.262 262.931C179.378 264.613 179.498 266.294 179.624 267.974C179.793 270.199 180.012 272.42 180.167 274.646C180.181 274.858 180.197 275.07 180.214 275.284C180.834 274.961 181.493 274.795 182.24 274.592L182.435 274.537C183.519 274.226 184.68 273.795 185.684 274.524C186.358 275.015 186.493 275.822 185.934 276.469C185.087 277.451 183.833 277.261 182.662 277.21L182.032 277.187C181.438 277.164 180.891 277.126 180.342 276.976C180.443 278.426 180.496 279.881 180.318 281.31C180.222 282.082 179.206 282.284 178.937 281.496C178.235 279.438 178.089 277.218 177.832 275.062C177.592 273.049 177.446 271.02 177.289 268.998L177.241 268.391C176.888 263.942 176.605 259.489 176.398 255.031C176.191 250.572 176.067 246.115 176.018 241.652C175.995 239.626 176.029 237.592 176.108 235.566L176.133 234.959C176.225 232.875 176.161 230.664 176.626 228.622ZM83.7899 275.318C83.8169 275.034 84.0449 274.68 84.384 274.724C84.6964 274.765 85.0184 274.745 85.3275 274.797C85.7354 274.864 86.0637 275.106 86.4432 275.257C87.0599 275.504 87.7321 275.631 88.3649 275.833C89.552 276.212 90.1989 277.462 89.7073 278.63C89.1903 279.857 87.8912 280.136 86.7687 279.621C85.884 279.215 85.2245 278.566 84.6296 277.815L84.461 277.601C84.2047 277.278 83.9137 276.918 83.8061 276.528C83.7016 276.147 83.7531 275.706 83.7899 275.318ZM141.465 269.549C142.944 269.34 144.207 269.846 145.575 270.323L145.686 270.361C147.078 270.842 149.11 271.175 149.824 272.601C150.254 273.46 149.92 274.602 148.907 274.857C147.302 275.259 145.863 274.086 144.536 273.296L144.467 273.255C143.186 272.504 141.864 271.873 141.046 270.579C140.828 270.234 141.017 269.612 141.465 269.549ZM89.8485 151.913C89.2561 152.045 88.6637 152.163 88.072 152.275C85.8209 153.482 83.636 154.735 81.3118 155.81C78.8459 156.951 76.3891 158.13 74.0468 159.51C69.3146 162.299 65.4135 165.925 62.19 170.369C56.6218 178.047 52.4799 186.9 49.5156 195.884C48.754 198.192 48.0725 200.526 47.4695 202.879C48.5356 201.893 49.7977 201.286 51.213 200.767C51.8127 200.547 52.5594 200.92 52.8634 201.439C53.0001 201.672 53.0772 201.903 53.063 202.177C53.0315 202.781 52.6386 203.467 51.99 203.587C50.478 203.866 49.0077 204.408 47.5498 204.886C47.3288 204.958 47.1389 204.931 46.9872 204.846C45.5398 210.979 44.6343 217.238 44.3136 223.535C44.0423 228.866 44.2096 234.239 44.7999 239.563C45.2535 239.359 45.6972 239.168 46.1945 239.052C46.8395 238.902 47.4739 238.719 48.1031 238.513C49.9187 237.917 50.7469 240.916 48.8911 241.373C48.2005 241.543 47.5056 241.684 46.8019 241.788C46.1886 241.878 45.6461 241.838 45.0678 241.744C45.5096 245.065 46.113 248.362 46.8815 251.613L47.0511 252.324C48.0495 256.475 49.2131 260.665 50.8958 264.589C51.7213 266.513 52.8141 268.341 54.1635 269.945C54.8265 270.734 55.5623 271.411 56.3647 272.052C57.0327 272.585 59.3035 273.742 61.9929 273.742C64.6822 273.742 65.4103 273.488 66.7671 273.021C69.4504 272.097 71.9981 270.622 74.5146 269.308L74.7748 269.173C75.8875 268.597 76.9961 268.012 78.1016 267.423C77.962 266.295 78.2064 265.348 78.7937 264.307C79.4286 263.18 81.0016 263.741 81.1186 264.894L81.1223 264.938C81.1401 265.197 81.1836 265.462 81.2377 265.726C88.6301 261.675 95.866 257.34 102.987 252.823C107.573 249.914 112.111 246.917 116.583 243.833C118.819 242.291 121.035 240.721 123.229 239.121C124.378 238.283 125.522 237.438 126.661 236.585C127.135 236.23 127.6 235.857 128.075 235.5C127.96 235.356 127.847 235.212 127.738 235.069C125.963 232.744 124.812 229.973 124.238 227.114C123.891 225.389 123.724 223.598 123.673 221.839L123.651 221.074C123.616 219.786 123.606 218.437 123.844 217.189C123.521 217.366 123.191 217.541 122.862 217.727C121.681 218.396 120.5 219.063 119.317 219.728C116.947 221.057 114.571 222.372 112.164 223.633C107.865 225.886 103.524 228.029 99.0657 229.95L96.8963 230.885C93.1313 232.506 89.3355 234.096 85.421 235.301C83.213 235.98 80.9884 236.56 78.7487 237.078L79.6544 238.14C80.2686 238.859 80.2794 239.892 79.4945 240.498C78.723 241.093 77.6877 240.845 77.1737 240.054L76.2368 238.613C76.0365 238.304 75.9228 238.016 75.8584 237.712C74.8267 237.928 73.7923 238.135 72.7552 238.335L70.7944 238.71C67.9947 239.25 65.2801 240.321 62.7776 241.691C61.9076 242.167 61.6652 241.242 62.587 240.597C65.2822 238.712 68.4261 237.646 71.6699 236.75L71.8293 236.707C73.0194 236.381 74.2073 236.041 75.3927 235.689C75.2624 235.217 75.1872 234.727 75.2022 234.188C75.2356 232.985 75.3418 231.779 75.4056 230.577C75.5396 228.055 75.7105 225.541 75.9108 223.024C75.9877 222.055 76.0739 221.082 76.1725 220.111C75.5369 219.77 74.9886 219.317 74.2799 219.094L74.1602 219.06C73.4022 218.855 73.658 217.878 74.3313 217.794C74.9413 217.719 75.5482 217.754 76.1495 217.883C76.2427 217.903 76.3308 217.926 76.4149 217.951C76.5253 217.051 76.6479 216.154 76.7871 215.261C77.1553 212.903 77.4158 210.418 78.1823 208.152C78.2391 207.985 78.4882 207.925 78.5806 208.1C79.6956 210.222 79.7344 212.826 79.8601 215.189L79.8756 215.471C80.0237 218.049 80.0322 220.652 79.9844 223.234C79.9354 225.894 79.8444 228.548 79.725 231.206C79.677 232.277 79.6789 233.387 79.4966 234.411C86.1321 232.253 92.6503 229.67 98.8982 226.611C103.305 224.454 107.674 222.21 111.994 219.882C114.158 218.716 116.332 217.569 118.494 216.398C119.252 215.988 120.009 215.576 120.765 215.164L121.9 214.545C122.962 213.965 123.848 213.388 125.085 213.348C125.453 213.336 125.784 213.508 126.019 213.77C126.683 213.298 127.452 213.009 128.258 213.016C129.471 211.339 130.703 209.676 131.985 208.049L132.931 206.844C134.569 204.766 136.304 202.656 138.393 201.074C139.326 200.369 140.351 199.839 141.421 199.402C141.169 199.34 140.923 199.216 140.703 199.013C139.682 198.065 139.541 196.305 139.334 194.983C139.118 193.612 139.201 192.385 139.414 191.018C139.497 190.487 140.376 190.377 140.591 190.865C141.043 191.893 141.522 192.879 141.933 193.919L142.055 194.233C142.497 195.404 143.438 196.635 143.375 197.905C143.359 198.254 143.242 198.557 143.062 198.801C143.96 198.503 144.87 198.237 145.767 197.959C148.589 197.087 151.421 196.239 154.298 195.563C155.063 195.383 155.833 195.215 156.605 195.062C157.01 193.14 157.6 191.253 158.295 189.4C157.637 189.062 157.211 188.496 156.644 187.993C156.113 187.522 155.748 186.948 155.295 186.407C154.883 185.915 155.115 185.025 155.856 185.054L156.065 185.063C156.833 185.099 157.576 185.178 158.272 185.536L158.52 185.664C158.86 185.841 159.232 186.043 159.563 186.282C159.997 185.285 160.447 184.297 160.903 183.319L161.493 182.055C163.026 178.763 164.554 175.347 166.477 172.282C167.332 170.92 168.471 170.069 170.104 169.938C171.786 169.802 173.535 169.977 175.219 170.037C177.172 170.107 179.124 170.19 181.075 170.293C180.575 169.769 180.119 169.186 179.617 168.683C178.783 167.849 177.902 167.058 176.976 166.328C175.144 164.882 173.129 163.691 171.037 162.665C168.944 161.639 166.789 160.744 164.824 159.476C163.581 158.674 162.47 157.665 161.456 156.573C160.818 163.46 157.493 169.86 152.498 174.668C147.31 179.661 140.141 182.404 133.128 183.571C125.974 184.761 118.508 184.324 111.665 181.837C108.137 180.554 104.753 178.722 101.735 176.423C101.702 176.623 101.662 176.821 101.583 177.007C101.478 177.256 101.35 177.469 101.202 177.688L100.939 178.073C100.773 178.315 100.604 178.555 100.416 178.779C99.9596 179.323 99.3133 179.561 98.6172 179.558C97.2843 179.554 96.2749 178.246 96.6336 176.953C96.859 176.141 97.3413 175.652 98.0943 175.333C98.3323 175.233 98.5748 175.149 98.8187 175.066L99.0019 175.004C99.2484 174.919 99.4931 174.839 99.7468 174.792C98.3178 173.53 96.9919 172.158 95.8046 170.677C92.0806 166.034 88.4075 159.53 89.6525 153.363C89.674 153.258 89.7693 153.191 89.872 153.174C89.9442 152.741 90.1745 152.323 90.4899 152.041C90.2776 151.985 90.0636 151.942 89.8485 151.913ZM128.519 258.538C129.256 258.127 130.018 259.102 129.419 259.704L128.524 260.6C127.693 261.435 126.885 262.279 126.174 263.23L126.002 263.463C125.042 264.769 124.019 266.282 122.447 266.77C120.545 267.361 118.717 265.043 119.818 263.35C120.781 261.871 122.633 261.313 124.23 260.701C125.741 260.122 127.106 259.323 128.519 258.538ZM67.1665 251.71C67.5998 251.143 68.7296 251.442 68.4337 252.245C67.4722 254.852 67.0803 258.408 64.652 260.141C63.8686 260.699 62.6379 260.443 61.9929 259.797C61.2601 259.064 61.2307 258.032 61.6498 257.137C62.161 256.046 63.4184 255.255 64.2997 254.424L64.3788 254.348C65.327 253.427 66.3525 252.776 67.1665 251.71ZM168.656 254.712C169.43 254.378 171.446 253.73 172.043 254.497C172.071 254.525 172.095 254.556 172.114 254.59C172.26 254.845 172.282 255.204 172.114 255.456C171.418 256.503 170.693 257.284 169.703 258.029L169.592 258.112C168.515 258.904 167.502 259.835 166.19 260.192C164.37 260.688 163.099 258.408 164.377 257.078C165.407 256.005 166.978 255.449 168.343 254.851L168.656 254.712ZM95.5827 239.812C95.2783 239.261 95.9002 238.586 96.4635 238.93C98.0702 239.913 99.9418 240.65 101.746 241.179C102.477 241.393 103.136 242.134 103.081 242.933L103.073 243.054C103.051 243.336 103.012 243.617 102.833 243.851C102.204 244.674 101.305 244.991 100.345 244.504C98.2054 243.419 96.7407 241.905 95.5827 239.812ZM142.542 238.145C142.503 237.913 142.672 237.735 142.908 237.779C144.265 238.037 145.52 238.693 146.685 239.447C147.311 239.852 147.914 240.296 148.538 240.704C149.309 241.209 149.597 241.625 149.711 242.551C149.786 243.162 149.216 243.72 148.693 243.888C147.268 244.348 145.635 242.84 144.67 241.859L144.626 241.815C143.616 240.785 142.782 239.566 142.542 238.145ZM183.324 236.544C183.014 235.708 184.081 235.014 184.778 235.425C185.435 235.812 186.148 236.132 186.767 236.575C187.337 236.983 187.856 237.465 188.402 237.907L188.672 238.12C189.673 238.926 191.326 240.917 189.894 242.073C188.532 243.172 186.725 241.768 185.81 240.741L185.746 240.669C185.22 240.06 184.571 239.4 184.19 238.689C183.83 238.021 183.586 237.254 183.324 236.544ZM169.885 171.818C168.178 172.15 167.482 174.257 166.764 175.631C165.067 178.873 163.507 182.175 161.941 185.481C161.458 186.497 160.989 187.522 160.515 188.545C160.486 188.625 160.449 188.704 160.405 188.782C159.434 190.873 158.434 192.95 157.266 194.934C158.335 194.734 159.41 194.563 160.489 194.429C160.435 193.413 161.13 192.053 161.474 191.197L161.503 191.125C161.932 190.028 162.382 188.301 163.486 187.732C163.854 187.543 164.248 187.78 164.276 188.186C164.36 189.392 163.18 190.774 162.603 191.798C162.254 192.418 161.915 193.04 161.583 193.669C161.459 193.905 161.355 194.136 161.228 194.344C161.784 194.283 162.341 194.23 162.9 194.191L163.264 194.166C165.335 194.029 167.534 193.99 169.405 195.012C171.141 195.959 172.029 197.982 171.075 199.824C169.887 202.119 167.271 202.423 164.97 202.609C162.096 202.84 159.216 203.259 156.363 203.667C153.411 204.09 150.632 205.178 147.725 205.738C147.454 205.79 147.286 205.436 147.534 205.285C149.827 203.888 152.615 203.12 155.179 202.337L155.387 202.273C156.778 201.846 158.137 201.358 159.576 201.115C160.972 200.88 162.378 200.69 163.786 200.545L163.923 200.532C165.474 200.402 169.431 200.446 169.264 198.149C169.153 196.628 166.683 196.366 165.555 196.348C160.384 196.265 155.177 197.638 150.263 199.109L149.166 199.438C147.154 200.044 145.139 200.667 143.164 201.377C140.927 202.181 139.164 203.435 137.535 205.152C135.728 207.056 133.978 209.002 132.104 210.842C130.922 212.001 129.725 213.14 128.519 214.27C128.246 214.623 128.028 215.007 127.877 215.505C127.622 216.347 127.681 217.129 127.777 217.993C128.02 220.176 128.074 222.382 128.378 224.558C128.66 226.574 129.055 228.665 129.892 230.535C130.223 231.275 130.654 232.003 131.146 232.653L131.542 233.169C131.715 233.393 131.908 233.638 132.111 233.868C132.409 233.505 132.84 233.268 133.341 233.328C134.405 233.453 135.242 233.423 136.286 233.178C137.095 232.989 137.897 232.767 138.701 232.562C140.282 232.159 141.876 231.792 143.44 231.329L143.709 231.248C144.875 230.89 146.041 230.442 147.011 229.689C148.138 228.815 148.485 227.553 149.32 226.461C151.102 224.131 154.955 224.18 157.563 223.542C159.78 223 161.913 222.144 163.447 220.535L163.536 220.439C163.468 220.152 163.578 219.828 163.845 219.679L163.903 219.647C164.007 219.589 164.119 219.565 164.229 219.567C164.371 219.358 164.509 219.142 164.634 218.912C164.736 218.722 164.993 218.862 164.959 219.049C164.939 219.161 164.911 219.27 164.885 219.379C166.371 218.997 168.003 219.07 169.511 219.071L171.469 219.064C171.808 219.06 172.313 219.043 172.358 219.022L172.404 219.002C172.526 218.949 172.353 219.036 172.438 218.923C172.532 218.798 172.624 218.672 172.715 218.544C173.04 218.09 173.347 217.622 173.647 217.15C170.369 217.986 166.972 218.506 163.625 218.939C160.033 219.405 156.394 219.728 152.771 219.731C151.772 219.732 151.781 218.223 152.771 218.186C156.608 218.039 160.425 217.836 164.236 217.344C166.207 217.089 168.17 216.77 170.121 216.396C170.875 216.252 171.626 216.099 172.376 215.938L172.938 215.815C173.291 215.737 174.287 215.625 174.773 215.299C174.869 215.135 174.964 214.971 175.059 214.807C175.012 214.231 173.549 214.308 173.206 214.307C172.233 214.305 171.26 214.313 170.286 214.316C168.34 214.321 166.395 214.304 164.448 214.289C160.56 214.257 156.657 214.121 152.772 214.287C151.829 214.328 151.334 212.815 152.266 212.417C156.381 210.659 160.949 210.277 165.343 209.737C167.654 209.453 169.966 209.125 172.224 208.55L172.783 208.408C174.202 208.044 175.769 207.6 176.964 206.733C175.168 206.006 172.935 206.089 171.074 205.986L170.931 205.978C168.324 205.818 165.713 205.736 163.101 205.732C157.757 205.725 152.412 205.914 147.074 206.168C146.94 206.174 146.912 205.962 147.043 205.934C152.529 204.737 158.105 204.16 163.72 204.071C166.334 204.029 168.951 204.066 171.563 204.182L172.522 204.226C174.749 204.322 177.221 204.348 179.085 205.694C179.369 205.899 179.519 206.161 179.542 206.438C182.042 201.454 184.35 196.365 186.668 191.31C188.47 187.38 190.205 183.417 192.072 179.517L192.677 178.256C193.487 176.572 194.316 174.889 195.237 173.266C191.793 172.806 188.33 172.486 184.865 172.241C181.707 172.018 171.405 171.524 169.885 171.818ZM168.36 225.839C168.752 225.62 169.354 225.798 169.451 226.283C169.523 226.643 169.646 227.044 169.646 227.413C169.646 227.855 169.488 228.335 169.404 228.768C169.21 229.763 168.971 230.571 168.466 231.457C168.15 232.011 167.511 232.387 166.869 232.373C166.361 232.361 165.91 232.225 165.562 231.831C165.144 231.359 164.857 230.666 165.086 230.031C165.686 228.368 166.79 226.711 168.36 225.839ZM85.0579 224.179C85.9769 222.569 88.1553 221.13 90.0562 221.272C92.9107 221.486 93.4931 225.331 90.7295 226.248C89.0777 226.797 86.8051 226.234 85.36 225.331C84.9704 225.088 84.8276 224.583 85.0579 224.179ZM55.7213 218.678C55.5126 218.374 55.8576 218.028 56.1685 218.096C56.8583 218.247 57.602 218.314 58.2776 218.519C58.9695 218.73 59.6393 219.079 60.3246 219.319C61.7604 219.822 63.294 220.075 64.6835 220.682C65.2389 220.925 65.6758 221.73 65.6245 222.323L65.6114 222.462C65.5806 222.756 65.5296 223.013 65.365 223.282C64.9228 224.005 64.0467 224.378 63.2198 224.155C61.6858 223.743 60.1869 222.684 58.8789 221.804L58.6372 221.644C58.0658 221.267 57.4513 220.873 56.9908 220.389C56.5102 219.882 56.1151 219.251 55.7213 218.678ZM108.453 212.821C108.276 212.185 109.068 211.765 109.529 212.195C110.45 213.054 111.414 213.85 112.317 214.731L112.377 214.791C113.023 215.441 113.964 216.693 113.123 217.533C112.046 218.611 110.546 217.012 109.968 216.179C109.236 215.122 108.796 214.057 108.453 212.821ZM178.975 207.562C177.608 209.01 175.502 209.676 173.647 210.228C171.448 210.882 169.183 211.272 166.915 211.594C164.723 211.904 162.549 212.181 160.392 212.537C162.023 212.558 163.655 212.57 165.282 212.599C167.159 212.633 169.035 212.674 170.912 212.728C172.279 212.768 173.882 212.58 175.181 213.088C175.415 213.18 175.633 213.307 175.824 213.461C176.916 211.519 177.963 209.55 178.975 207.562ZM94.6498 194.015C96.0767 193.562 97.4185 192.96 98.9312 193.117C99.3332 193.158 99.6212 193.549 99.4017 193.936C98.6848 195.198 97.5191 195.911 96.3717 196.755L96.2705 196.83C95.0145 197.764 93.666 198.616 92.3001 199.383C89.9485 200.703 87.8411 196.924 90.216 195.816C91.645 195.148 93.146 194.493 94.6498 194.015ZM120.34 190.735C122.523 190.879 124.705 190.976 126.89 191.065C129.422 191.167 128.571 195.065 126.456 194.276C124.367 193.497 122.277 192.727 120.169 192C119.527 191.779 119.579 190.724 120.299 190.733L120.34 190.735ZM64.3485 183.801C64.9142 183.762 65.4849 183.885 66.0515 183.94L66.6544 183.999C67.8973 184.122 69.0626 184.275 70.2479 184.781C72.4349 185.715 71.2603 189.232 69.0648 189.151C67.4421 189.091 66.0544 188.394 64.6842 187.583C63.4863 186.873 62.7519 185.985 61.943 184.871C61.6751 184.502 62.0484 184.089 62.4133 184.052C63.0559 183.986 63.7056 183.846 64.3485 183.801ZM173.979 176.619C173.617 178.878 172.718 180.995 171.365 182.839C170.685 183.765 169.49 183.8 168.816 182.839C167.862 181.479 168.45 179.92 169.169 178.614L169.382 178.232C169.703 177.658 170.197 176.821 170.762 176.244L170.771 176.185C171.074 173.819 174.352 174.291 173.979 176.619ZM85.6828 162.121C86.227 161.63 87.2293 161.778 87.4059 162.576C87.6531 163.693 87.8035 164.953 87.6417 166.087C87.554 166.702 87.5211 167.392 87.2794 167.965C87.0195 168.581 86.5197 169.055 86.0487 169.519C85.1086 170.443 83.1267 170.138 82.8749 168.68L82.8429 168.502C82.7162 167.812 82.5542 167.075 82.7418 166.392C82.8833 165.876 83.1998 165.35 83.4615 164.872L83.5167 164.77C84.0411 163.793 84.8585 162.863 85.6828 162.121ZM162.181 164.498L162.378 164.5C163.897 164.53 166.674 164.9 166.689 166.778C166.692 167.221 166.365 167.679 165.925 167.781C165.017 167.992 164.43 167.455 163.783 166.913C163.254 166.469 162.637 166.115 161.996 165.861C161.304 165.585 161.35 164.497 162.181 164.498Z" fill="black"/>
<path fill-rule="evenodd" clip-rule="evenodd" d="M164.804 91.3169C164.02 85.0565 161.557 78.4097 158.966 72.5733C153.14 60.2334 139.804 58.5344 127.848 55.9902C116.05 54.2719 103.556 52.7204 91.9366 56.1487C85.404 57.7497 82.8525 65.5328 83.8835 71.6749C84.4718 75.5022 86.2133 79.1246 87.6983 82.6717C90.6499 89.9561 92.5226 97.7547 92.5258 105.641C92.3232 110.795 91.596 116.678 97.5166 118.861C103.15 121.664 103.626 129.262 110.681 133.572C113.533 139.352 121.303 139.861 126.896 141.202C130.43 141.879 134.005 142.377 137.589 142.699C147.968 144.029 156.271 141.02 161.704 131.771C165.34 126.142 168.047 119.643 167.378 112.821C166.712 105.637 165.602 98.491 164.804 91.3169Z" fill="white"/>
<path fill-rule="evenodd" clip-rule="evenodd" d="M127.937 40.9931C128.53 40.3214 129.442 40.5518 129.996 41.0829C130.357 41.1892 130.706 41.3473 131.036 41.5565C131.782 41.4608 132.564 41.4608 133.296 41.4876C133.473 41.3881 133.663 41.2995 133.87 41.2234C135.349 40.6826 136.659 40.9573 137.739 41.6814C138.259 41.189 138.916 40.88 139.755 40.9267C140.504 40.9685 141.037 41.3211 141.495 41.7854C141.951 41.1275 142.688 40.6581 143.607 40.5928C144.891 40.5015 146.125 41.0165 147.148 41.8139C147.744 41.13 148.556 40.7369 149.462 40.7331C150.058 40.6249 150.686 40.6676 151.255 40.8392C152.079 41.0884 152.804 41.5553 153.38 42.1612C154.293 41.287 155.41 40.6581 156.698 40.7498C158.365 40.8703 159.746 42.0963 160.388 43.6053C161.517 44.0574 162.558 44.7023 163.429 45.6216C163.475 45.67 163.519 45.7208 163.566 45.7717C164.035 45.9448 164.477 46.1902 164.865 46.5133C166.097 47.5386 166.372 49.0223 165.964 50.4761C166.021 50.7088 166.069 50.9455 166.114 51.182C167.267 51.3575 168.315 52.0234 168.911 53.1077C169.727 54.5956 169.566 56.5567 168.683 57.9772C168.303 58.5882 167.821 59.103 167.28 59.5532C167.892 60.9439 167.598 62.6034 166.612 63.7282C166.371 64.116 166.076 64.466 165.744 64.7829C166.11 66.2207 165.458 67.7041 164.157 68.4724L164.046 68.7511C164.027 68.7974 164.008 68.8435 163.988 68.8892C163.974 68.9484 163.956 69.0056 163.939 69.0633C163.908 69.5735 163.74 70.0742 163.406 70.546C162.724 71.5127 161.878 72.1432 161.429 73.2717L161.384 73.3903C161.192 73.9244 160.569 74.3012 160.038 74.1364C162.985 80.1897 164.529 86.9252 165.59 93.5261C166.119 96.8192 166.527 100.124 166.858 103.441L167.182 106.744C167.468 109.68 167.722 112.626 167.724 115.572C167.728 122.236 165.822 128.646 161.732 133.949C157.864 138.962 152.39 142.595 146.206 144.026C139.822 145.501 132.332 144.92 126.607 141.543C124.919 140.55 126.398 138.161 128.115 138.96C131.367 140.474 134.671 141.598 138.275 141.849C141.788 142.096 145.31 141.657 148.642 140.507C154.154 138.603 158.844 134.615 161.859 129.648C163.344 127.201 164.419 124.544 164.992 121.737C165.705 118.239 165.597 114.623 165.335 111.079L165.317 110.838C164.8 104.011 164.117 97.1423 163.015 90.3835C162.04 84.4067 160.541 78.5511 158.595 72.8249C157.833 72.1537 156.98 71.5983 156.067 71.1764C149.386 70.8972 142.692 70.9788 136.019 71.44C130.328 71.8359 124.664 72.5056 119.043 73.4817L118.441 73.5875C117.197 73.8092 115.815 73.936 114.643 74.4371C113.637 74.8683 113.229 75.6968 112.976 76.7153C112.338 79.2916 112.241 82.1113 112.133 84.7531C112.027 87.3356 112.266 89.9397 112.059 92.5137C111.884 94.6674 111.332 96.8717 109.737 98.4296C108.903 99.2452 107.876 99.6912 106.912 100.31C106.289 100.71 106.025 101.122 106.105 101.862C106.279 103.481 107.582 105.52 106.118 106.907C105.86 107.15 105.415 107.181 105.161 106.907C104.557 106.25 103.722 105.748 103.006 105.218C102.706 104.998 102.955 104.571 103.296 104.723C103.743 104.924 104.2 105.161 104.667 105.368C103.636 104.519 102.169 104.102 100.948 103.855C100.334 103.732 99.6875 103.696 99.0473 103.754C98.5741 103.979 98.0903 104.189 97.6065 104.394C96.9917 104.652 96.3706 104.886 95.7451 105.108C93.5754 106.877 92.5403 109.754 92.9924 112.567C93.2396 114.12 93.9557 115.809 95.3057 116.716C96.9051 117.789 99.0473 117.328 100.775 118.125C102.393 118.871 103.378 120.378 104.115 121.938L104.423 122.587C105.107 124.025 105.81 125.425 106.746 126.733C107.827 128.249 109.152 129.61 110.597 130.779C111.298 131.345 112.045 131.853 112.817 132.317L113.029 132.442C113.81 132.901 114.37 133.338 114.423 134.308C114.44 134.646 114.227 134.955 113.952 135.13C112.769 135.881 111.592 134.942 110.608 134.287C109.545 133.581 108.529 132.787 107.588 131.92C105.801 130.276 104.255 128.323 103.065 126.203C102.159 124.588 101.643 122.316 100.211 121.065C99.3368 120.302 98.1009 120.296 97.0086 120.156C95.9924 120.025 95.0312 119.814 94.1269 119.313C90.4488 117.269 89.4093 112.322 90.2819 108.498C90.4297 107.854 90.6368 107.226 90.8924 106.621C89.5234 106.85 87.9854 105.434 88.541 104.005C88.5833 103.897 88.6319 103.796 88.6783 103.692C87.7762 103.098 87.0643 102.198 86.7262 101.021C86.553 100.412 86.5276 99.7968 86.6185 99.2029C86.1812 98.9094 85.8199 98.5055 85.5875 98.0088C84.8607 97.6728 84.2164 97.17 83.8319 96.4514C83.2995 95.4599 83.3671 94.5469 83.7727 93.7247C83.7157 93.6214 83.6607 93.5157 83.6079 93.4077C82.1185 92.4632 81.079 90.8356 81.1974 89.0307C81.2354 88.4325 81.3833 87.8936 81.6114 87.4077C81.5924 87.3464 81.5734 87.2828 81.5565 87.2215C80.31 86.5874 79.279 85.5457 78.9114 84.155C78.5438 82.7557 78.9769 81.3608 79.8431 80.2871C78.5755 79.3595 77.8128 78.0639 78.2755 76.1045C78.4635 75.3079 78.8417 74.5827 79.353 73.9719C79.3509 73.9531 79.3466 73.9341 79.3424 73.9149L79.2237 73.8229C77.6589 72.5875 76.7594 71.0132 77.7199 69.0771C78.1509 68.2065 78.7657 67.5997 79.4882 67.2003L79.5241 67.0862C79.0065 65.9766 78.8312 64.7444 79.1882 63.4488C79.4797 62.3817 80.1706 61.5319 81.0537 60.9678C80.9945 60.4899 81.003 59.9808 81.0981 59.4289C81.2565 58.4971 81.7192 57.6834 82.3952 57.1064C82.4206 56.9836 82.4523 56.8634 82.4882 56.7427C82.7164 56.0053 83.1431 55.2043 83.6375 54.6101C84.0452 54.1177 84.5016 53.9381 85.0593 53.919C85.0255 53.4648 85.0487 53.0039 85.1416 52.5368C85.4268 51.0956 86.3438 49.7406 87.7023 49.1256C88.26 48.8741 88.8473 48.8003 89.4135 48.8614C89.8952 47.8469 90.8354 47.1117 91.991 46.9531C92.441 46.8897 92.8593 46.8937 93.2438 46.951C93.4614 46.8494 93.6875 46.7587 93.9241 46.6761C94.0804 46.6211 94.2388 46.5704 94.3972 46.5199C94.9318 45.8562 95.6354 45.3255 96.4572 45.0066C97.4058 44.6367 98.3713 44.6746 99.2269 44.9853L99.4995 44.9282C99.9262 44.1885 100.606 43.6157 101.652 43.3557C102.839 43.062 104.058 43.472 104.992 44.2183C104.996 44.2183 105 44.2183 105.007 44.2159C105.495 43.1233 106.329 42.3624 107.73 42.4152C108.603 42.4491 109.391 42.8825 109.999 43.4997C110.337 43.4572 110.675 43.4191 111.015 43.3813C111.374 42.9605 111.774 42.5676 112.215 42.2147C112.938 41.6354 113.878 41.6821 114.41 42.4977C114.527 42.6752 114.634 42.8548 114.742 43.0345L115.23 43.0007C115.805 42.225 116.588 41.7009 117.662 41.6588C118.646 41.6184 119.348 42.1005 119.882 42.7745C120.317 42.764 120.755 42.7557 121.192 42.7492C121.701 42.1595 122.301 41.6396 122.986 41.2084C123.51 40.8787 124.283 40.9909 124.708 41.4306C124.994 41.7294 125.261 42.0414 125.51 42.3643C126.15 41.6466 127.014 41.1738 127.937 40.9931ZM96.8438 108.107C97.8305 107.545 99.1572 108.154 100.112 108.631C101.276 109.213 102.431 110.09 103.143 111.189C104.113 112.685 101.834 113.894 100.813 112.552C100.186 111.726 99.6854 110.893 98.9248 110.17C98.2298 109.506 97.222 109.063 96.8227 108.188C96.8079 108.158 96.8122 108.124 96.8438 108.107ZM97.5375 71.7865L97.556 71.7337C97.8365 70.9659 96.6119 70.6349 96.3337 71.3964C95.9121 72.5506 96.3982 73.8054 97.5378 74.3038C97.8536 74.442 98.2145 74.394 98.4048 74.0764C98.5648 73.809 98.4906 73.3457 98.1775 73.209C97.5363 72.9285 97.3216 72.4334 97.5375 71.7865ZM86.9873 69.6395C87.6002 69.0985 86.7008 68.2042 86.0909 68.743C85.5217 69.2456 85.0996 69.9282 85.2093 70.7134C85.321 71.5136 85.9242 72.0785 86.5844 72.4777C87.2841 72.9011 87.922 71.805 87.2241 71.3827L87.1458 71.3348C86.8528 71.1528 86.51 70.9025 86.4604 70.5445C86.4078 70.1641 86.7296 69.8671 86.9873 69.6395ZM90.4677 60.0924L90.5111 60.0605C91.1694 59.5904 90.5371 58.4902 89.8712 58.9655C89.2605 59.4015 88.7709 59.9679 88.7194 60.7491C88.6693 61.5082 89.0555 62.1664 89.5604 62.7005C90.1222 63.2946 91.0175 62.3968 90.4568 61.8039C89.9105 61.2261 89.8037 60.5956 90.4677 60.0924Z" fill="black"/>
<path fill-rule="evenodd" clip-rule="evenodd" d="M150.578 122.331C150.724 122.292 150.853 122.489 150.732 122.596C150.234 123.038 149.919 123.86 149.556 124.421C149.21 124.955 148.878 125.483 148.574 126.041C148.234 126.667 147.905 127.29 147.64 127.952L147.588 128.086C147.667 128.275 147.729 128.461 147.775 128.584L147.788 128.618C148.241 129.774 147.291 131.059 146.219 131.382C144.387 131.935 142.815 130.429 142.771 128.639C142.736 127.231 143.691 125.976 144.66 125.045C145.509 124.23 146.458 123.537 147.521 123.029C147.99 122.805 148.477 122.618 148.986 122.51C149.506 122.399 150.068 122.469 150.578 122.331ZM147.124 127.435C147.259 127.499 147.374 127.654 147.47 127.835C147.422 127.681 147.322 127.529 147.124 127.435ZM148.271 107.866C149.866 108.836 152.297 111.098 150.581 113.503C148.561 115.624 145.652 113.192 144.219 112.093C142.89 111.24 141.396 113.432 142.63 114.427C152.987 122.098 157.19 108.12 149.078 106.725C148.185 106.572 147.853 107.566 148.271 107.866ZM135.157 98.5506L135.438 98.5269C136.661 98.4191 137.899 98.2548 139.105 98.5315C140.725 98.9035 140.606 101.261 139.105 101.695C137.782 102.076 136.316 101.911 134.95 101.924C134.735 101.926 134.521 101.932 134.306 101.935C134.264 102.446 134.096 102.887 133.84 103.327C133.656 103.643 133.422 103.942 133.191 104.223C132.643 104.889 131.349 104.874 130.795 104.223C130.386 103.741 130.06 103.186 130.055 102.533C130.053 102.366 130.074 102.188 130.114 102.014L129.368 102.027C127.544 102.055 125.706 102.042 123.914 101.752C123.277 101.884 122.756 100.734 123.635 100.39C126.026 99.4541 128.697 99.1788 131.234 98.8979C132.538 98.7534 133.849 98.6537 135.157 98.5506ZM155.525 97.5839L155.59 97.5774C157.173 97.4153 158.917 97.1347 160.502 97.2962C162.869 97.5368 162.865 100.738 160.502 100.978C159.634 101.065 158.72 101.023 157.809 100.939C158.275 101.927 157.722 103.108 156.6 103.259C155.557 103.399 154.476 102.385 154.818 101.298L154.834 101.25C154.901 101.061 154.961 100.85 155.032 100.642L154.654 100.61C153.526 100.51 151.96 100.306 151.545 99.4149C151.419 99.1463 151.448 98.8969 151.641 98.6674C152.432 97.7255 154.382 97.6945 155.525 97.5839ZM138.701 90.2547C139.846 89.8385 141.036 90.8124 141.184 91.91C141.355 93.1748 140.443 94.0075 139.288 94.1585L139.23 94.1656C136.678 94.4467 134.146 94.9606 131.592 95.2512C130.431 95.383 129.262 95.4698 128.094 95.501L127.26 95.5197C126.237 95.5456 125.14 95.5689 124.195 95.2166L124.199 95.2102C123.948 95.1375 123.833 94.7757 124.112 94.5779C125.117 93.8667 126.473 93.5978 127.643 93.2599C128.82 92.9198 130.005 92.6064 131.194 92.312C133.69 91.6944 136.282 91.1335 138.701 90.2547ZM149.262 90.5504C149.565 88.9502 151.831 88.7786 152.663 89.9429C153.201 90.1277 153.99 90.3204 154.478 90.4654C155.33 90.718 156.182 90.969 157.036 91.2123C158.804 91.7162 160.53 92.3549 162.268 92.9502C162.447 93.0117 162.398 93.2392 162.226 93.2618C159.799 93.5777 157.414 93.7247 154.972 93.6234L154.472 93.6009C152.321 93.517 148.669 93.677 149.262 90.5504Z" fill="black"/>
<path fill-rule="evenodd" clip-rule="evenodd" d="M152.745 131.525C150.778 129.772 148.572 126.247 145.746 129.036C145.047 129.824 144.763 131.591 143.694 131.938C142.275 132.398 140.868 130.896 140.384 129.742C138.404 123.33 146.588 121.571 151.249 122.607C153.527 123.543 155.204 127.309 155.306 129.275C155.371 130.595 154.254 132.538 152.745 131.525ZM167.589 121.643C167.57 121.558 167.543 121.481 167.51 121.411C166.64 121.082 165.952 121.417 165.526 122.044C165.54 122.2 165.587 122.358 165.616 122.512C165.288 123.204 164.992 124.06 164.547 124.658C164.459 124.665 164.368 124.656 164.28 124.63C156.904 125.401 160.505 117.681 153.024 115.763C147.241 114.809 136.789 115.902 134.061 121.923C131.909 131.542 120.969 124.84 117.377 119.838C113.544 115.285 111.066 109.723 108.677 104.325C108.172 103.182 106.596 103.999 106.767 105.095C104.559 109.528 104.632 114.851 104.085 119.707C103.155 129.394 102.248 142.979 111.246 148.894C122.968 162.15 152.241 166.827 165.762 154.648C170.442 144.581 169.865 132.301 167.589 121.643Z" fill="black"/>
</svg>
