<svg width="240" height="324" viewBox="0 0 240 324" fill="none" xmlns="http://www.w3.org/2000/svg">
<path fill-rule="evenodd" clip-rule="evenodd" d="M189.444 219.788C188.032 215.446 189.714 210.431 188.615 205.75C188.238 203.898 187.522 197.02 186.802 192.997C186.4 190.747 188.807 190.049 189.177 189.151C191.78 181.083 172.79 162.105 171.631 161.405C169.894 160.401 168.356 159.537 166.659 158.511C161.708 156.771 155.771 151.931 151.282 155.039C143.505 143.458 146.581 129.189 142.361 127.493C138.141 125.797 125.679 122.369 118.554 126.746C114.284 129.907 114.598 135.349 112.65 139.836C111.506 141.949 110.944 145.009 109.613 146.387C105.089 151.068 99.4472 151.875 93.1404 152.669C92.6601 152.73 92.1547 151.423 91.6879 151.584C81.0493 155.263 68.6703 156.336 56.6221 176.933C54.9206 179.879 50.3304 184.605 51.8652 188.009C41.7523 211.534 31.8015 264.485 59.5504 277.69C60.4374 278.258 66.4548 275.214 67.4352 275.242C69.0696 275.289 65.938 279.259 67.4352 278.552C78.4272 279.386 138.911 277.234 162.095 279.386C178.038 279.267 188.136 282.063 191.817 279.267C190.345 275.709 190.414 271.898 190.879 268.137C194.267 265.615 190.078 247.839 190.433 242.635C193.605 238.831 191.079 224.566 189.444 219.788Z" fill="white"/>
<path fill-rule="evenodd" clip-rule="evenodd" d="M184.39 193.752C182.869 195.965 181.471 198.243 180.208 200.613C179.557 201.835 178.949 203.081 178.402 204.353C178.289 201.603 178.264 198.821 177.942 196.098C177.919 195.901 177.592 195.806 177.557 196.045C177.202 198.514 177.144 201.047 177.01 203.543C176.855 203.496 176.685 203.468 176.497 203.468C174.671 203.468 172.873 203.618 171.054 203.766C170.239 203.832 169.387 203.882 168.555 204.012C169.224 203.273 169.848 202.492 170.423 201.677C171.01 200.846 171.68 199.548 170.658 198.75C169.529 197.869 167.314 199.021 166.222 199.47C165.669 199.697 165.127 199.944 164.593 200.206C163.919 198.317 161.852 198.067 160.081 198.327C158.818 198.514 157.592 198.946 156.361 199.275C154.798 199.692 153.229 200.086 151.654 200.455C148.818 201.119 145.962 201.699 143.093 202.202C143.017 202.114 142.912 202.045 142.771 202.009C141.789 201.764 140.705 201.952 139.697 201.971C138.661 201.99 137.625 201.988 136.589 201.967C134.738 201.929 132.889 201.914 131.038 201.882C130.512 201.563 129.845 201.105 129.682 200.504C129.478 199.755 130.115 198.925 130.41 198.287C131.545 195.838 131.942 193.097 131.497 190.43C131.418 189.955 131.254 189.435 131.018 188.948C133.045 189.165 135.046 189.312 137.085 189.379C141.155 189.511 145.226 189.65 149.298 189.68C157.441 189.741 165.583 189.741 173.726 189.682C178.33 189.648 182.923 189.606 187.521 189.371C187.147 189.846 186.782 190.331 186.426 190.824C186.353 190.802 186.257 190.842 186.268 190.933C186.271 190.965 186.275 190.996 186.279 191.028C185.63 191.935 185.005 192.857 184.39 193.752ZM175.336 277.968C173.444 277.908 171.552 277.848 169.659 277.787C165.945 277.669 162.231 277.551 158.517 277.433C151.16 277.198 143.802 276.972 136.443 276.769C129.102 276.567 121.757 276.352 114.414 276.582C107.054 276.811 99.7129 277.405 92.3667 277.882C88.2827 278.147 84.1957 278.377 80.1041 278.487C76.2073 278.591 72.276 278.433 68.3853 278.711C68.2545 277.749 68.3507 276.789 68.3365 275.831C69.6128 275.093 70.8654 274.31 72.1034 273.539C76.6169 270.731 80.8833 267.554 84.9075 264.081C85.5261 263.547 86.1326 263.001 86.7331 262.45C86.3152 263.364 86.6496 264.542 87.8473 264.928C89.3078 265.4 90.8031 265.232 92.32 265.196C93.8604 265.16 95.4007 265.126 96.9413 265.093C99.9521 265.03 102.963 264.972 105.974 264.922C111.856 264.823 117.739 264.75 123.621 264.703C135.456 264.607 147.283 264.768 159.117 264.982C162.444 265.042 165.768 265.117 169.096 265.041C170.76 265.004 172.432 264.991 174.095 264.902C175.427 264.83 176.767 264.641 178.099 264.472C178.267 266.793 178.443 269.113 178.639 271.432C178.768 272.963 178.901 274.494 179.033 276.025C179.086 276.656 179.09 277.301 179.179 277.901C177.901 277.971 176.63 278.009 175.336 277.968ZM176.637 212.433C176.59 214.21 176.566 215.987 176.553 217.765C176.399 217.677 176.226 217.613 176.031 217.583C173.962 217.267 171.748 217.507 169.654 217.542C167.63 217.576 165.6 217.565 163.578 217.66C161.552 217.756 159.527 217.87 157.502 217.975C156.551 218.025 155.611 218.067 154.668 218.196C154.022 218.284 153.196 218.278 152.506 218.462C155.401 215.656 158.281 212.835 161.169 210.022C161.255 209.937 161.318 209.848 161.361 209.757C163.287 208.583 165.135 207.262 166.809 205.75C168.136 206.262 169.647 206.326 171.054 206.44C172.874 206.588 174.67 206.738 176.496 206.738C176.62 206.738 176.735 206.726 176.844 206.704C176.755 208.613 176.687 210.522 176.637 212.433ZM101.458 246.944C105.879 248.356 110.668 248.34 115.267 248.623C120.169 248.925 125.064 249.175 129.972 249.367C139.775 249.747 149.571 250.265 159.372 250.677C164.971 250.912 170.568 251.172 176.164 251.454C176.561 251.473 176.939 251.372 177.273 251.185C177.461 254.872 177.681 258.557 177.938 262.24C177.969 262.7 178.005 263.16 178.038 263.621C175.404 263.291 172.79 262.974 170.137 262.75C167.157 262.498 164.179 262.286 161.195 262.088C155.38 261.702 149.556 261.186 143.731 260.998C131.856 260.614 119.955 260.744 108.075 260.829C104.714 260.853 101.353 260.885 97.9917 260.926C96.3113 260.946 94.6309 260.969 92.9504 260.993C91.2616 261.018 89.4466 260.842 87.8475 261.432C87.8323 261.437 87.8194 261.446 87.8044 261.451C92.6287 256.879 96.9506 251.825 101.458 246.944ZM116.997 232.325C124.385 233.67 131.888 233.578 139.376 233.711C147.038 233.848 154.711 233.757 162.374 233.773C166.727 233.782 171.118 233.973 175.455 233.586C175.968 233.54 176.365 233.346 176.648 233.07C176.727 237.685 176.872 242.298 177.072 246.909C176.79 246.79 176.483 246.717 176.164 246.698C166.372 246.122 156.579 245.599 146.774 245.28C136.978 244.96 127.169 244.582 117.368 244.7C112.584 244.758 107.526 244.452 102.808 245.495C104.601 243.589 106.433 241.719 108.348 239.928C111.141 237.317 114.121 234.871 116.997 232.325ZM122.641 226.892C122.651 226.881 122.656 226.868 122.664 226.857C122.69 226.876 122.723 226.89 122.765 226.889C129.681 226.733 137.439 228.915 143.906 225.566C146.794 224.071 149.185 221.708 151.506 219.436C151.507 219.453 151.509 219.47 151.51 219.487C151.525 219.671 151.603 219.893 151.79 219.975C152.553 220.309 153.446 220.331 154.265 220.451C155.207 220.588 156.133 220.668 157.083 220.725C159.178 220.851 161.273 220.984 163.369 221.103C165.46 221.221 167.561 221.231 169.654 221.283C171.754 221.335 173.953 221.59 176.032 221.29C176.222 221.262 176.392 221.202 176.543 221.119C176.546 223.809 176.57 226.498 176.596 229.186C176.6 229.624 176.608 230.062 176.613 230.499C176.333 230.242 175.947 230.063 175.455 230.019C171.601 229.68 167.718 229.831 163.851 229.844C160.053 229.856 156.255 229.869 152.457 229.882C144.789 229.907 137.127 229.982 129.46 230.128C125.731 230.199 122.019 230.513 118.345 231.116C119.833 229.761 121.279 228.365 122.641 226.892ZM62.5558 275.791C61.1401 276.224 59.7348 276.036 58.3163 276.333C58.2291 276.351 58.1486 276.385 58.0748 276.43C53.8271 274.614 50.9957 270.971 49.0579 266.888C47.0154 262.585 45.6075 257.985 44.6644 253.322C42.7199 243.708 42.7165 233.74 43.723 224.014C44.7119 214.459 46.67 204.955 49.4642 195.766C51.3827 189.456 53.8277 183.082 57.2226 177.329C61.1426 179.956 64.1828 183.739 67.0467 187.437C70.4691 191.856 73.5531 196.533 76.3138 201.392C76.0284 202.224 75.984 203.268 75.8471 204.012C75.5832 205.446 75.3449 206.899 75.1575 208.346C74.7572 211.439 74.3731 214.533 73.9638 217.624C73.1545 223.738 72.1881 229.834 71.1206 235.907C71.0342 236.399 71.1724 236.815 71.4265 237.127C69.3092 238.244 67.2195 239.41 65.1836 240.674C60.7074 243.452 56.5241 246.689 53.2398 250.841C53.1544 250.948 53.2881 251.092 53.3938 250.995C60.437 244.484 69.1873 240.397 77.7785 236.357C82.1688 234.293 86.5377 232.195 90.7499 229.782C95.1548 227.258 99.3557 224.406 103.382 221.315C107.98 217.786 112.308 213.928 116.365 209.788C116.842 209.3 116.727 208.689 116.367 208.304C116.489 208.266 116.587 208.16 116.593 207.984C116.69 205.281 117.502 202.977 119.09 200.79C120.564 198.76 122.443 197.087 124.137 195.25C124.89 194.434 125.61 193.584 126.252 192.676C126.914 191.743 127.316 190.712 127.892 189.737C128.565 188.597 129.137 189.179 129.448 190.211C129.802 191.381 129.78 192.75 129.638 193.953C129.488 195.225 129.1 196.465 128.543 197.615C128.019 198.696 127.415 199.794 127.767 201.032C128.347 203.067 130.831 204.245 132.713 204.704C134.809 205.214 137.002 205.115 139.124 204.85C141.781 204.518 144.427 204.033 147.054 203.517C150.096 202.92 153.121 202.23 156.121 201.451C157.532 201.084 158.933 200.603 160.357 200.299C160.865 200.191 161.805 200.029 162.402 200.294C154.73 204.869 146.365 207.917 137.87 210.573C136.815 210.903 137.247 212.498 138.328 212.234C147.454 210.001 156.041 205.858 164.212 201.321C164.337 201.251 164.443 201.143 164.521 201.016C165.343 200.727 166.179 200.475 167.031 200.268C167.412 200.175 169.372 199.529 169.616 199.777C169.964 200.129 168.762 201.272 168.462 201.604C166.327 203.971 163.787 205.902 161.037 207.499C158.249 209.118 155.281 210.409 152.3 211.628C148.96 212.993 145.43 214.066 142.184 215.634C140.894 216.258 141.799 218.375 143.157 217.946C144.908 217.392 146.61 216.579 148.311 215.887C149.757 215.301 151.203 214.714 152.64 214.107C153.642 213.684 154.637 213.247 155.623 212.79C154.146 214.18 152.67 215.57 151.194 216.96C148.637 219.368 146.208 222.111 143.083 223.799C139.996 225.468 136.474 225.662 133.037 225.626C131.311 225.608 129.594 225.553 127.868 225.622C126.052 225.696 124.44 225.975 122.719 226.546C122.687 226.557 122.664 226.576 122.645 226.598C122.585 226.524 122.483 226.487 122.377 226.55C117.701 229.316 113.439 232.903 109.34 236.449C105.115 240.104 101.139 243.991 97.3514 248.096C93.7258 252.026 90.1292 255.97 86.184 259.585C82.3319 263.115 78.2154 266.321 73.9169 269.287C71.5748 270.904 69.1748 272.46 66.6916 273.852C65.3646 274.595 64.0169 275.344 62.5558 275.791ZM62.9492 169.398C64.6237 167.516 66.426 165.772 68.3331 164.159C69.1746 164.408 70.0579 164.477 70.948 164.487C72.3062 164.5 73.6674 164.557 75.0257 164.543C77.641 164.516 80.2552 164.433 82.8711 164.419C88.2198 164.39 93.5701 164.388 98.9188 164.435C99.6195 164.441 100.125 164.141 100.437 163.706C101.52 164.934 102.636 166.134 103.761 167.314C105.589 169.232 107.538 171.063 109.613 172.73C109.209 172.733 108.805 172.737 108.404 172.734C106.553 172.721 104.703 172.71 102.853 172.7C99.1406 172.679 95.428 172.664 91.7154 172.654C84.3345 172.635 76.9307 172.696 69.5593 173.074C67.5134 173.179 65.4514 173.222 63.4127 173.421C62.3069 173.529 61.2024 173.656 60.0977 173.773C59.8717 173.797 59.6549 173.828 59.4421 173.862C60.524 172.307 61.6894 170.813 62.9492 169.398ZM92.5102 152.626C92.4603 152.659 92.4064 152.69 92.3587 152.726C92.2501 152.807 92.2672 152.955 92.3952 153.004C92.5655 153.071 92.7445 153.121 92.9287 153.161C93.4881 153.973 93.9252 154.976 94.2305 155.485C95.1075 156.946 96.1159 158.338 97.1418 159.697C97.348 159.97 97.5582 160.24 97.7693 160.509C92.8013 160.497 87.8359 160.522 82.8709 160.71C80.2569 160.809 77.634 160.893 75.0254 161.089C73.9528 161.169 72.8809 161.305 71.8116 161.439C77.3764 157.415 83.6346 154.342 90.1178 152.061C90.1089 152.071 90.0998 152.078 90.0909 152.088C89.9481 152.246 90.1613 152.452 90.3221 152.319C91.1655 151.621 91.8975 151.949 92.5102 152.626ZM117.612 199.925C117.471 200.139 117.332 200.36 117.197 200.587C116.871 200.262 116.416 200.044 115.83 200.026C109.322 199.823 102.817 199.646 96.305 199.641C93.0937 199.639 89.8533 199.531 86.646 199.69C85.0355 199.77 83.4257 199.865 81.816 199.956C80.6906 200.02 79.495 200.099 78.396 200.425C75.8631 195.993 73.0514 191.732 69.9808 187.658C76.9476 188.513 84.0337 188.422 91.04 188.659C98.9779 188.928 106.92 188.986 114.861 189.174C117.039 189.226 119.217 189.282 121.395 189.343C122.519 189.375 123.643 189.407 124.767 189.441C125.119 189.452 125.482 189.462 125.846 189.452C125.819 189.509 125.791 189.566 125.764 189.622C125.151 190.888 124.38 192.054 123.482 193.136C121.573 195.436 119.266 197.417 117.612 199.925ZM109.074 213.577C108.833 212.907 108.246 212.391 107.31 212.434C101.978 212.676 96.6354 212.844 91.3092 213.195C88.7146 213.366 86.1094 213.482 83.5191 213.709C82.183 213.826 80.8493 214.044 79.5189 214.217C78.6069 214.336 77.652 214.474 76.7771 214.798C76.9468 212.925 77.0963 211.05 77.2263 209.172C77.3304 207.663 77.3621 206.141 77.3541 204.628C77.3501 203.863 77.3241 203.093 77.2871 202.328C77.3657 202.343 77.4445 202.351 77.5218 202.342C77.6583 202.325 77.7857 202.309 77.904 202.277C79.13 202.757 80.5176 202.863 81.8161 202.956C83.3562 203.065 84.8959 203.182 86.4361 203.292C89.713 203.526 93.0209 203.511 96.305 203.618C102.77 203.829 109.236 203.951 115.703 204.125C115.403 205.412 115.392 206.735 115.872 207.981C115.538 207.87 115.153 207.922 114.824 208.247C112.961 210.088 111.043 211.863 109.074 213.577ZM90.2643 227.27C90.1327 226.906 89.8842 226.571 89.5902 226.344C88.4594 225.473 86.3954 225.974 85.0382 226.041C83.4315 226.12 81.8246 226.198 80.2179 226.277C79.7303 226.3 77.2416 226.427 75.4137 226.817C75.7914 223.964 76.1341 221.106 76.4404 218.242C76.5047 217.641 76.5642 217.04 76.6232 216.439C77.4843 216.716 78.4202 216.817 79.3084 216.86C80.6394 216.923 81.9765 217.03 83.3087 217.051C85.9705 217.093 88.6471 216.962 91.3092 216.917C96.1033 216.838 100.898 216.609 105.69 216.42C100.879 220.326 95.7951 223.891 90.4923 227.134C90.4166 227.18 90.3399 227.224 90.2643 227.27ZM75.1224 228.963C75.5274 229.017 75.929 229.034 76.2362 229.066C77.7785 229.221 79.2966 229.362 80.8467 229.385C82.3837 229.407 83.9204 229.43 85.4574 229.453C85.7842 229.457 86.1111 229.462 86.4379 229.467C82.3909 231.678 78.2196 233.659 74.1073 235.745C74.4696 233.487 74.8078 231.227 75.1224 228.963ZM119.221 178.606C128.444 182.527 140.274 182.882 148.2 176.369C148.988 176.585 149.859 176.657 150.554 176.726C152.117 176.883 153.665 177.028 155.235 177.077C158.295 177.172 161.358 177.316 164.42 177.353C170.613 177.43 176.807 177.466 183 177.521C183.528 177.526 183.949 177.365 184.269 177.107C184.896 178.171 185.48 179.261 186.012 180.38C186.789 182.01 187.448 183.696 187.988 185.419C187.872 185.399 187.752 185.385 187.623 185.383C179.484 185.242 171.338 185.476 163.197 185.51C155.054 185.544 146.912 185.51 138.77 185.568C136.516 185.584 134.28 185.584 132.032 185.751C130.862 185.838 129.678 185.877 128.52 186.065C128.39 186.086 128.258 186.105 128.126 186.124C126.573 185.216 124.646 185.405 122.871 185.372C120.833 185.334 118.796 185.299 116.758 185.269C112.754 185.21 108.748 185.166 104.743 185.139C96.7941 185.084 88.8645 185.287 80.9207 185.565C76.9683 185.702 73.0309 185.936 69.1294 186.545C68.8674 186.205 68.608 185.864 68.3426 185.528C65.5782 182.023 62.301 177.536 57.752 176.45C57.9265 176.165 58.1036 175.882 58.2834 175.602C61.435 176.433 64.9119 176.391 68.132 176.565C71.8438 176.766 75.5477 176.904 79.2639 176.996C86.6509 177.177 94.0364 177.291 101.425 177.403C103.475 177.435 105.526 177.467 107.577 177.502C108.683 177.52 109.789 177.541 110.895 177.558C111.513 177.568 112.065 177.566 112.654 177.361C113.2 177.171 113.731 176.886 114.258 176.65C114.442 176.567 114.592 176.445 114.714 176.301C116.162 177.167 117.663 177.943 119.221 178.606ZM155.261 165.568C156.421 165.89 157.618 165.944 158.845 166.036C160.454 166.158 162.06 166.179 163.675 166.189C166.248 166.205 168.822 166.188 171.395 166.117C172.5 166.086 173.145 165.346 173.337 164.499C173.364 164.52 173.391 164.542 173.418 164.564C176.549 167.144 179.386 170.096 181.79 173.363C176 173.381 170.21 173.385 164.42 173.424C161.359 173.445 158.295 173.571 155.235 173.649C153.734 173.688 152.255 173.812 150.76 173.954C150.73 173.957 150.699 173.96 150.669 173.963C150.827 173.78 150.984 173.595 151.138 173.404C152.925 171.189 154.394 168.459 155.261 165.568ZM192.906 281.851C193.417 280.445 193.218 278.937 193.189 277.458C193.16 275.941 193.144 274.425 193.139 272.908C193.129 269.942 193.109 266.976 193.076 264.01C193.009 258.011 192.94 252.006 192.704 246.01C192.238 234.156 191.339 222.331 189.873 210.557C189.16 204.833 188.275 199.122 187.074 193.479C187.091 193.456 187.108 193.433 187.125 193.41C188.32 191.812 189.68 190.335 190.855 188.725C190.959 188.583 191.002 188.4 191.001 188.215C191.044 188.194 191.087 188.172 191.131 188.147C192.105 187.592 191.225 186.079 190.251 186.641C190.364 186.576 188.746 182.423 188.574 182.004C187.958 180.502 187.266 179.033 186.485 177.61C186.014 176.751 185.51 175.91 184.982 175.085C184.889 174.468 184.556 173.897 183.985 173.592C182.982 172.154 181.898 170.772 180.743 169.456C176.015 164.066 170.109 159.716 163.656 156.617C162.724 156.169 161.764 155.796 160.807 155.405C159.789 154.988 158.845 154.444 157.841 154.007C156.208 153.295 154.596 153.336 152.992 154.089C152.855 154.154 152.953 154.365 153.093 154.328C154.125 154.059 155.183 154.014 156.218 154.306C157.233 154.593 158.004 155.226 158.89 155.754C160.468 156.696 162.232 157.31 163.85 158.189C165.989 159.351 168.08 160.628 170.079 162.03C168.007 162.14 165.934 162.219 163.86 162.274C162.32 162.315 160.78 162.322 159.242 162.411C158.147 162.475 157.008 162.457 155.914 162.634C156.178 160.819 156.179 158.989 155.849 157.221V157.219C155.769 156.793 155.672 156.371 155.554 155.953C155.301 155.064 154.491 154.93 153.902 155.267C153.844 155.224 153.785 155.182 153.729 155.136C153.024 154.563 152.39 153.879 151.838 153.159C150.693 151.664 149.767 149.933 149.066 148.188C148.355 146.421 147.852 144.573 147.359 142.736C147.112 141.815 146.845 140.899 146.593 139.979C146.374 139.179 146.215 138.295 145.812 137.566C145.737 137.43 145.51 137.455 145.474 137.61C145.261 138.523 145.374 139.565 145.413 140.496C145.456 141.529 145.515 142.553 145.653 143.578C145.938 145.706 146.397 147.798 147.134 149.818C147.84 151.756 148.773 153.564 150.038 155.197C150.88 156.281 152.074 157.717 153.458 158.301C153.638 160.337 153.618 162.375 153.137 164.39C152.508 167.028 151.304 169.536 149.65 171.685C146.182 176.189 140.815 178.735 135.217 179.259C129.425 179.802 123.498 178.506 118.293 175.957C112.504 173.123 107.702 168.75 103.388 164.029C100.902 161.308 98.3232 158.631 96.0187 155.752C95.6103 155.242 94.9567 154.206 94.1813 153.273C94.9704 153.266 95.7802 153.148 96.4787 153.058C97.9237 152.873 99.336 152.585 100.748 152.226C103.388 151.554 106.173 150.62 108.48 149.141C113.361 146.013 115.267 142.044 115.918 136.577C116.124 134.849 113.136 134.429 112.858 136.162C112.431 138.828 111.784 140.124 110.933 142.685C110.116 145.145 108.931 146.062 106.667 147.418C104.541 148.692 102.126 149.432 99.7839 150.196C98.4863 150.62 97.1733 151.006 95.8647 151.395C95.0317 151.643 94.0427 151.859 93.1977 152.242C92.7568 151.855 92.2968 151.563 91.8337 151.453C91.8677 151.396 91.8236 151.307 91.7382 151.323C91.6022 151.351 91.4665 151.381 91.3305 151.409C91.1938 151.419 91.0577 151.446 90.9219 151.495C82.7657 153.262 74.9332 157.024 68.2913 162.15C67.9565 162.29 67.6326 162.461 67.3244 162.678C67.1657 162.789 67.0605 162.966 67.0303 163.149C66.0318 163.965 65.0629 164.811 64.1268 165.687C56.5875 172.741 51.8106 182.125 48.4664 191.777C45.1721 201.286 42.9422 211.257 41.716 221.24C40.4659 231.417 40.3218 241.805 42.1349 251.924C43.1084 257.357 44.6845 262.697 47.0108 267.708C49.0998 272.209 52.5001 277.337 57.841 277.885C57.8581 277.902 57.8741 277.92 57.8934 277.936C59.9889 279.662 63.1089 278.47 65.2998 277.439C65.6471 277.275 65.9917 277.103 66.3348 276.927C66.1535 277.625 66.0718 278.356 66.0339 279.041C65.9551 280.463 67.9603 280.544 68.3399 279.363C71.5903 279.935 74.9467 279.943 78.2342 279.925C81.9075 279.905 85.5796 279.777 89.2487 279.604C96.5285 279.261 103.8 278.736 111.085 278.497C125.835 278.014 140.625 279.047 155.364 279.567C159.498 279.713 163.633 279.858 167.767 280.004C171.992 280.153 176.212 280.182 180.402 280.753C181.943 280.963 182.533 279.453 182.099 278.512C182.207 277.88 182.099 277.187 182.04 276.442C181.929 275.051 181.824 273.659 181.726 272.267C181.535 269.552 181.35 266.836 181.175 264.12C180.819 258.617 180.514 253.11 180.216 247.603C179.625 236.654 179.172 225.697 178.839 214.737C178.758 212.066 178.652 209.393 178.518 206.724C178.677 206.471 178.836 206.217 178.99 205.961C179.502 205.106 180.004 204.246 180.523 203.396C181.564 201.691 182.61 199.997 183.704 198.325C184.649 196.882 185.624 195.46 186.642 194.068C187.906 204.748 189.03 215.439 189.546 226.188C190.114 238.027 190.416 249.883 190.579 261.734C190.625 265.045 190.656 268.356 190.691 271.667C190.71 273.391 190.728 275.114 190.714 276.838C190.7 278.487 190.451 280.29 191.036 281.851C191.377 282.761 192.569 282.777 192.906 281.851Z" fill="black"/>
<path fill-rule="evenodd" clip-rule="evenodd" d="M151.143 69.0517C137.248 57.7538 114.981 54.0854 100.107 65.4837C88.5491 76.1808 83.7664 106.578 85.8117 121.853C86.3804 131.65 93.8625 142.755 104.846 139.656C106.711 139.473 108.522 138.757 110.404 138.608C112.656 138.348 114.924 138.344 117.172 138.661C122.068 139.354 126.408 141.955 131.161 143.171C139.979 145.427 149.818 143.909 157.408 138.828C182.491 122.33 171.129 85.0192 151.143 69.0517Z" fill="white"/>
<path fill-rule="evenodd" clip-rule="evenodd" d="M149.292 143.442C149.55 143.353 149.807 143.26 150.063 143.165C150.08 143.225 150.107 143.281 150.139 143.337C150.175 143.425 150.211 143.512 150.251 143.598C149.93 143.601 149.609 143.543 149.292 143.442ZM148.776 33.9583C148.662 33.7028 148.531 33.4577 148.383 33.2207C148.742 33.3372 149.102 33.4978 149.427 33.7049C149.207 33.7789 148.992 33.8635 148.776 33.9583ZM93.8906 67.3856C93.8758 67.3831 93.8612 67.381 93.8467 67.3785C94.0351 66.8765 94.3708 66.4027 94.7416 66.0605C94.8081 65.999 94.8802 65.9421 94.9499 65.8834C94.5563 66.3524 94.1993 66.8526 93.8906 67.3856ZM194.317 119.874C194.131 118.112 193.894 116.356 193.588 114.61C193.294 112.938 193.047 111.15 192.196 109.666C191.351 108.189 190.504 106.754 189.498 105.454C189.642 104.79 189.832 104.167 189.997 103.664C190.947 100.768 191.883 97.091 189.908 94.4005C189.449 93.777 188.89 93.2994 188.249 92.8682C187.977 92.6843 187.525 92.5174 187.316 92.2637C187.168 92.0841 187.219 92.1813 187.212 92.0925C187.176 91.6149 188.296 90.6067 188.558 90.2284C189.048 89.5287 189.413 88.7405 189.692 87.9353C190.795 84.7481 190.045 81.2376 189.382 78.0439C189.031 76.3512 188.645 74.654 188.518 72.9252C188.399 71.302 188.621 69.7169 188.752 68.1022C188.879 66.5084 188.845 64.8643 188.163 63.3888C187.829 62.6703 187.324 62.0362 186.709 61.5416C186.109 61.0579 185.361 60.7768 184.776 60.2949C184.193 59.8149 184.36 59.1663 184.512 58.5026C184.721 57.6023 184.985 56.7083 185.011 55.7783C185.057 54.1573 184.396 52.5783 183.363 51.3527C182.298 50.0867 180.777 49.2305 179.133 49.0382C178.381 48.9494 177.642 49.0997 176.894 49.0468C176.154 48.9961 175.994 48.6262 175.854 47.9499C175.533 46.4007 175.664 44.8706 174.902 43.4249C174.226 42.1399 173.023 41.2689 171.694 40.7556C169.259 39.8129 166.426 40.0074 163.856 40.563C162.34 36.0995 157.605 33.1723 152.947 33.1364C152.22 31.9021 150.988 30.9806 149.583 30.4393C147.259 29.5411 144.798 30.0655 142.377 30.0655H142.366C142.123 30.0505 141.88 30.0443 141.638 30.0464C141.409 30.0335 141.181 30.0145 140.953 29.9894C138.198 29.6637 135.473 28.5351 132.743 29.6406C131.526 30.1331 130.559 30.8918 129.946 31.8598C129.023 32.1111 128.112 32.3988 127.219 32.7327C123.346 32.8339 119.509 34.9115 117.551 38.2785C114.794 37.9657 111.802 38.4962 109.979 40.7492C109.504 41.3355 109.136 42.0243 108.892 42.7556C107.033 43.3571 105.313 44.4288 104.187 46.0431C103.16 47.5162 102.962 49.4209 103.657 51.0022C101.997 52.205 100.701 53.9269 100.076 55.9601C99.6958 57.1954 99.6394 58.4718 99.8837 59.6877C98.1844 60.0647 96.5592 60.7637 95.1192 61.8126C93.6101 62.9114 91.7254 64.6603 91.6261 66.6732C91.6187 66.821 91.6244 66.9687 91.6362 67.116C88.314 66.8825 84.9266 67.4455 82.681 70.11C80.9949 72.1092 80.262 74.6836 80.712 77.0275C76.7592 77.8306 73.0216 79.8976 70.4146 82.9538C68.5197 85.175 66.8359 87.9987 66.9371 91.0229C66.9688 91.934 67.1824 92.8513 67.5521 93.6988V93.7007C67.3937 93.9989 67.2308 94.3307 67.0744 94.6837C64.6259 96.3975 62.847 99.084 61.8456 102.045C61.0366 104.444 60.5275 107.559 61.3913 110C61.5225 110.372 61.6894 110.723 61.8838 111.048C61.7209 111.222 61.5669 111.395 61.4169 111.571C59.7667 113.5 58.0956 115.931 58.2099 118.587C58.2564 119.657 58.6533 120.733 59.3021 121.616C57.0202 123.93 55.1824 126.851 55.3639 130.112C55.5202 132.951 57.0775 135.834 59.5174 137.197C59.1099 139.384 59.6549 141.692 61.3575 143.4C62.2071 144.254 63.2083 144.816 64.269 145.116C64.5056 147.692 66.7913 149.766 69.2188 150.362C69.6711 150.474 70.1232 150.541 70.573 150.573C72.7575 151.645 75.3625 151.522 77.5913 150.539C78.2484 151.374 79.104 152.055 80.1012 152.543C80.5047 152.742 80.9317 152.906 81.3773 153.039C84.5252 153.971 87.7535 152.708 90.5061 151.233C90.5949 151.186 90.7575 151.127 90.9012 151.061C91.2815 151.486 91.9744 151.907 92.3357 152.114C93.5613 152.818 95.0592 153.145 96.4662 153.052C98.1162 152.942 99.5716 152.397 100.92 151.621C101.117 151.655 101.315 151.674 101.514 151.685C102.781 151.752 103.911 151.351 104.928 150.717C105.599 150.806 106.288 150.797 106.985 150.675C108.521 151.065 110.017 150.444 111.219 149.457C111.752 149.02 112.202 148.506 112.683 148.016C113.184 147.506 113.564 147.388 114.149 147.046C115.533 146.236 115.7 144.184 115.1 142.7C115.214 142.44 115.28 142.151 115.28 141.83C115.275 139.027 113.985 136.457 112.4 134.215C111.692 133.215 110.924 132.236 110.08 131.349C109.402 130.636 108.45 129.48 107.446 129.191C107.385 129.146 107.321 129.102 107.258 129.06C107.452 128.379 107.566 127.686 107.518 126.978C107.467 126.251 107.232 125.562 106.857 124.974C108.118 122.529 108.65 119.847 108.397 117.049C109.423 115.592 110.201 113.984 110.602 112.222C110.849 111.131 110.991 109.983 110.972 108.865C110.963 108.328 110.767 107.65 110.763 107.094C110.793 107.27 111.021 106.614 111.109 106.451C112.128 104.56 113.435 103.085 113.653 100.855C113.78 99.5509 113.471 98.1097 112.69 97.0403C113.19 95.0662 113.184 92.9462 112.396 91.0633C112.185 90.5603 111.942 90.0678 111.663 89.6007C111.792 89.2076 111.91 88.8103 112.062 88.4529C112.121 88.3113 112.18 88.1678 112.24 88.024C112.812 87.5187 113.345 86.9673 113.793 86.426C114.785 85.2279 115.544 83.8541 115.639 82.2709C115.686 81.4783 115.5 80.7196 115.269 79.9674C115.168 79.6271 115.106 79.2488 114.986 78.917C114.919 78.7329 114.756 78.545 114.699 78.3717C114.686 78.3336 114.675 78.3019 114.667 78.2766C114.675 78.2512 114.682 78.1984 114.682 78.0988C114.684 77.3401 114.783 76.5982 114.788 75.8672C115.483 76.5689 116.319 77.0928 117.27 77.3995C119.186 78.0145 121.185 77.7355 122.881 76.7866C124.707 78.0377 126.758 79.1704 128.909 79.625C130.187 79.8953 131.467 79.7835 132.749 79.9505C134.023 80.1174 135.255 80.6733 136.455 81.1066C139.126 82.0724 141.79 83.0634 144.468 84.0042C146.632 84.7629 148.973 85.3653 151.238 84.9383C151.874 85.9188 152.7 86.7475 153.758 87.3562C154.516 87.7894 155.349 88.083 156.209 88.2291C156.969 88.358 157.861 88.3073 158.478 88.8293C159.08 89.3365 159.456 90.093 159.997 90.6638C160.599 91.3021 161.342 91.8558 162.122 92.2532C162.747 92.5723 163.386 92.8025 164.034 92.9527C163.977 94.3963 163.922 95.8377 163.905 97.2833C163.874 100.424 163.886 103.564 163.844 106.705C163.802 109.835 163.702 112.965 163.538 116.091C163.381 119.025 163.161 121.969 162.462 124.831C160.142 134.327 151.453 141.126 141.726 141.472C138.838 141.576 135.98 141.17 133.218 140.32C130.358 139.439 127.804 137.626 124.871 137.068C124.104 136.924 123.382 137.696 123.821 138.437C124.578 139.712 125.497 140.49 126.754 141.257C128.07 142.058 129.536 142.652 130.983 143.172C133.645 144.127 136.462 144.681 139.286 144.835C141.441 144.953 143.604 144.805 145.715 144.4C145.863 144.854 146.125 145.296 146.323 145.716C146.353 145.778 146.452 145.735 146.433 145.672C146.401 145.566 146.381 145.473 146.372 145.397C147.082 146.323 148.178 146.963 149.305 147.274C150.099 147.494 150.942 147.561 151.759 147.468C152.024 147.439 152.275 147.394 152.524 147.34C153.356 148.069 154.421 148.555 155.49 148.798C155.307 149.914 155.858 151.131 157.136 151.448C157.673 151.581 158.188 151.583 158.704 151.535C159.12 151.729 159.568 151.881 160.043 151.985C160.662 152.12 161.401 151.947 161.868 151.499C162.124 151.679 162.363 151.803 162.599 152.088C163.574 153.264 165.673 152.327 165.766 150.968C166.075 150.968 166.385 150.973 166.696 150.983C166.77 151.017 166.844 151.051 166.92 151.087C168.278 151.718 169.685 152.27 171.188 151.774C171.464 151.683 171.718 151.567 171.948 151.431C173.006 151.526 174.05 151.528 175.124 151.182C175.757 150.977 176.353 150.651 176.849 150.224C178.506 150.711 180.253 150.93 181.901 150.328C183.135 149.878 184.128 149.168 184.827 148.231C185.896 148.269 186.982 148.012 187.96 147.502C189.633 146.636 190.806 144.989 191.623 143.339C193.424 139.697 194.488 135.785 194.906 131.75C195.318 127.777 194.731 123.825 194.317 119.874Z" fill="black"/>
<path fill-rule="evenodd" clip-rule="evenodd" d="M149.372 128.003C148.022 128.014 146.504 127.507 145.489 127.11L145.224 127.005C144.346 126.653 143.443 126.249 142.77 125.571C142.555 125.35 142.326 125.101 142.21 124.839C142.141 124.685 142.113 124.526 142.179 124.368C142.422 124.344 142.653 124.313 142.871 124.273C142.975 124.254 143.075 124.234 143.151 124.234C143.433 124.232 143.711 124.268 143.99 124.303C144.03 124.308 144.07 124.313 144.111 124.318C144.327 124.345 144.543 124.374 144.758 124.403C145.384 124.487 146.007 124.57 146.642 124.601C147.101 124.623 147.582 124.597 148.067 124.57C149.325 124.502 150.626 124.408 151.595 125.29C151.849 125.521 151.955 125.812 151.955 126.108C151.955 126.468 151.804 126.835 151.573 127.122C151.049 127.773 150.244 127.996 149.372 128.003ZM156.736 116.649C156.148 117.531 155.169 118.098 153.828 118.036C151.163 117.914 147.982 116.908 145.749 115.453C145.168 115.075 144.791 114.469 144.723 113.82L144.603 112.666L143.953 113.627C143.885 113.727 143.817 113.827 143.749 113.927C143.56 114.202 143.372 114.477 143.195 114.759C142.514 115.842 141.89 116.935 141.323 118.082C140.921 118.894 140.628 119.802 140.334 120.718C139.837 122.265 139.357 123.787 138.295 124.874C138.135 125.038 137.888 125.097 137.662 125.068C137.463 125.043 137.268 124.945 137.173 124.75C135.904 122.17 137.61 119.061 138.994 116.9L139.14 116.674C140.423 114.721 142.519 112.136 144.919 111.784L145.194 112.223L145.593 111.956C146.247 111.52 147.109 111.54 147.864 111.881L148.619 112.222C150.025 112.853 151.411 113.436 152.932 113.755C153.043 113.778 153.154 113.799 153.264 113.82C153.369 113.839 153.474 113.856 153.579 113.873C153.556 113.769 153.532 113.666 153.508 113.563C153.482 113.454 153.456 113.345 153.428 113.236C153.399 113.124 153.369 113.012 153.338 112.901C153.216 112.457 153.079 112.017 152.915 111.586C152.301 109.968 151.321 108.454 150.367 107.01L150.255 106.84C150.118 106.633 149.968 106.417 149.813 106.194C149.07 105.122 148.245 103.959 148.186 102.792C149.174 102.854 150 103.468 150.727 104.002C151.725 104.735 152.65 105.573 153.489 106.483C155.117 108.249 156.578 110.507 157.218 112.841C157.585 114.178 157.424 115.616 156.736 116.649ZM130.694 103.334L130.693 103.286C130.696 101.938 131.481 98.8612 133.42 98.8612C134.632 98.8612 135.368 100.955 135.495 103.114L135.499 103.202C135.556 104.545 135.188 107.478 133.42 107.478C131.635 107.478 130.712 104.7 130.694 103.334ZM159.248 102.911V102.863C159.245 101.516 158.46 98.4385 156.521 98.4385C155.34 98.4385 154.611 100.429 154.457 102.53L154.446 102.692C154.37 103.988 154.714 107.056 156.521 107.056C158.307 107.056 159.229 104.277 159.248 102.911ZM137.226 94.2128C136.969 94.243 136.713 94.2825 136.457 94.3231C135.711 94.4419 134.97 94.5846 134.233 94.7509C132.834 95.0669 131.446 95.4659 130.085 95.9167C128.811 96.3388 127.556 96.8158 126.303 97.2927C126.236 97.3181 126.169 97.3436 126.102 97.369C125.659 97.5374 125.218 97.7261 124.775 97.9154C124.102 98.2035 123.425 98.4936 122.735 98.7121C124.554 96.1958 127.357 94.3313 130.054 92.9971C131.593 92.2358 133.226 91.622 134.868 91.119L135.783 90.8441C137.13 90.4466 138.602 90.0794 139.867 90.872C140.368 91.1854 140.687 91.6727 140.788 92.1995C140.886 92.7161 140.774 93.27 140.417 93.7323C140.106 94.135 139.719 94.3643 139.307 94.4429C138.852 94.5297 138.37 94.4344 137.932 94.2C137.58 94.1738 137.477 94.1833 137.373 94.1948L137.226 94.2128ZM157.486 94.4688C156.584 94.2728 155.692 94.1941 154.767 94.2223C154.349 94.2349 153.944 94.2995 153.541 94.3646C152.914 94.4656 152.29 94.5699 151.615 94.4473C151.262 94.3833 150.962 94.1772 150.731 93.9082C150.46 93.5936 150.281 93.1916 150.223 92.8094C150.164 92.4146 150.223 92.0692 150.369 91.7643C150.541 91.4041 150.832 91.1005 151.183 90.8346C152.246 90.0296 154.07 90.2232 155.324 90.3859C156.564 90.5472 157.797 90.9317 158.892 91.5424C159.973 92.1452 160.913 92.9573 161.647 93.9499C162.265 94.7865 162.556 95.7494 162.857 96.7299C161.442 95.5428 159.278 94.858 157.486 94.4688Z" fill="black"/>
</svg>
